<?xml version="1.0" standalone="no"?>
<!DOCTYPE svg PUBLIC "-//W3C//DTD SVG 20010904//EN"
 "http://www.w3.org/TR/2001/REC-SVG-20010904/DTD/svg10.dtd">
<svg version="1.0" xmlns="http://www.w3.org/2000/svg"
 width="90.000000pt" height="90.000000pt" viewBox="0 0 90.000000 90.000000"
 preserveAspectRatio="xMidYMid meet">
<metadata>
Created by potrace 1.16, written by Peter Selinger 2001-2019
</metadata>
<g transform="translate(0.000000,90.000000) scale(0.100000,-0.100000)"
fill="#000000" stroke="none">
<path d="M182 798 c-9 -9 -12 -77 -12 -244 0 -128 -4 -244 -9 -258 -6 -13 -20
-26 -33 -29 -21 -4 -22 -4 -2 -6 45 -3 49 17 54 283 l5 251 85 0 85 0 0 -265
c0 -265 0 -266 -26 -315 -38 -75 -97 -108 -208 -116 l-86 -7 90 2 c78 2 96 6
131 29 49 30 79 69 99 128 20 55 22 528 3 547 -7 7 -42 12 -88 12 -46 0 -81
-5 -88 -12z"/>
<path d="M608 786 c-51 -14 -109 -54 -134 -91 -36 -55 -34 -156 3 -197 9 -10
14 -20 11 -23 -8 -8 -40 45 -49 80 -7 29 -7 29 -8 4 -1 -31 44 -97 88 -128 16
-12 56 -33 88 -46 32 -14 66 -30 75 -35 22 -13 35 -13 23 -1 -6 5 -35 19 -65
31 -67 26 -144 70 -136 77 3 4 14 -1 25 -11 10 -9 54 -32 97 -50 91 -38 120
-68 105 -109 -20 -52 -131 -59 -232 -13 -24 11 -27 14 -9 10 22 -4 23 -4 7 6
-20 13 -30 8 -33 -16 -2 -9 -8 -39 -15 -67 -11 -45 -10 -52 6 -63 30 -22 125
-37 205 -32 96 6 160 35 201 91 16 22 29 34 29 27 0 -27 -88 -99 -141 -115
-93 -27 -253 -15 -300 24 -21 16 -21 20 -9 70 7 29 10 54 7 57 -3 3 -11 -20
-17 -52 -12 -57 -12 -59 14 -80 60 -52 267 -59 348 -11 24 14 56 39 73 57 29
30 30 35 31 132 l1 101 -36 40 c-23 26 -69 56 -131 86 -82 40 -95 49 -95 71 0
24 2 25 70 24 39 0 83 -3 100 -5 29 -4 30 -2 49 63 11 37 17 70 15 72 -3 3
-31 12 -64 21 -70 18 -133 18 -197 1z"/>
<path d="M188 541 c-3 -224 -5 -251 -21 -269 -23 -25 -71 -34 -118 -23 l-37 8
-7 -64 c-4 -36 -4 -67 -1 -70 3 -4 41 -8 85 -11 94 -5 139 8 192 55 62 56 69
96 69 380 l0 243 -80 0 -79 0 -3 -249z"/>
</g>
</svg>
